
<svg version="1.2" baseProfile="tiny-ps" xmlns="http://www.w3.org/2000/svg" viewBox="0 0 121 48" width="48" height="48">
<g ><g ><g ><g ><path fill-rule="evenodd" class="shp0" d="M74.61 22.48C76.53 22.48 77.53 23.01 78.09 24.25C80.68 30.07 83.28 35.89 85.85 41.72C86.4 42.97 85.97 44.16 84.89 44.69C83.69 45.27 82.36 44.86 81.72 43.63C81.21 42.63 80.87 41.55 80.34 40.57C80.16 40.22 79.63 39.85 79.26 39.85C76.54 39.78 73.83 39.83 71.11 39.8C70.47 39.79 70.13 39.98 69.9 40.59C69.54 41.56 69.12 42.52 68.68 43.46C68.07 44.76 66.82 45.25 65.6 44.74C64.44 44.25 63.98 43.05 64.57 41.73C67.14 35.9 69.74 30.08 72.34 24.26C72.89 23.03 73.88 22.48 74.61 22.48ZM78.26 35.58C77.22 33.11 76.24 30.81 75.15 28.21C74.04 30.84 73.07 33.15 72.05 35.58C74.18 35.58 76.1 35.58 78.26 35.58Z" /></g></g><g ><path class="shp0" d="M108.57 22.54C110.87 22.51 113.02 23.09 115.01 24.24C116.32 24.99 116.76 26.32 116.09 27.45C115.46 28.52 114.15 28.71 112.8 28.11C111.54 27.56 110.21 27.14 108.89 26.74C108.5 26.62 108.04 26.68 107.62 26.74C106.57 26.89 105.63 27.24 105.42 28.45C105.22 29.69 106 30.32 107.02 30.68C108.22 31.11 109.46 31.41 110.67 31.81C111.74 32.16 112.82 32.5 113.83 32.96C116.1 34 117.21 35.8 117.16 38.31C117.12 40.88 116.13 42.94 113.74 44.04C109.89 45.82 106.11 45.19 102.42 43.43C101.94 43.2 101.48 42.9 101.04 42.59C99.93 41.83 99.62 40.52 100.27 39.46C100.89 38.46 102.28 38.25 103.47 38.84C104.91 39.56 106.37 40.3 107.9 40.74C108.81 41 109.9 40.79 110.87 40.61C111.71 40.45 112.32 39.88 112.42 38.95C112.53 37.95 112.03 37.27 111.17 36.94C109.87 36.45 108.52 36.08 107.21 35.63C106.03 35.24 104.84 34.88 103.71 34.39C99.53 32.58 99.82 26.07 103.36 23.87C104.97 22.88 106.7 22.47 108.57 22.54Z" /></g><g ><path class="shp0" d="M95.32 33.82C95.32 36.64 95.32 39.46 95.31 42.28C95.31 43.96 94.41 44.93 92.91 44.92C91.47 44.91 90.57 43.97 90.57 42.33C90.55 36.65 90.55 30.97 90.57 25.29C90.57 23.68 91.48 22.67 92.87 22.63C94.35 22.59 95.3 23.57 95.32 25.24C95.34 28.1 95.33 30.96 95.33 33.82C95.32 33.82 95.32 33.82 95.32 33.82Z" /></g><path class="shp1" d="M0 6.84C12.72 15.8 26.14 18.51 40.26 14.95C61.44 9.62 77.04 0.81 84.02 3.36C80.53 4.98 72.3 10.32 64.31 17.5C56.32 24.69 30.49 36.75 0 6.84Z" /><path class="shp2" d="M11.17 17.74C25.29 31.08 40.52 33.09 56.87 23.77C54.77 26.7 35.38 52.05 11.17 17.74Z" /></g></g></svg>
